<svg width="12" height="11" viewBox="0 0 12 11" fill="none" xmlns="http://www.w3.org/2000/svg">
    <path
        d="M9.80857 1.25604C9.99709 1.06808 10.2479 0.964169 10.5082 0.966232C10.7685 0.968294 11.0178 1.07617 11.2036 1.26709C11.3894 1.45802 11.4971 1.71706 11.504 1.98955C11.5108 2.26205 11.4164 2.52669 11.2405 2.72762L5.90093 9.72116C5.80911 9.82473 5.6983 9.90785 5.57511 9.96554C5.45192 10.0232 5.31889 10.0543 5.18397 10.0569C5.04905 10.0595 4.91501 10.0336 4.78987 9.98077C4.66472 9.92789 4.55105 9.84913 4.45563 9.74919L0.914663 6.04079C0.816052 5.94456 0.73696 5.82852 0.682103 5.69958C0.627246 5.57064 0.597749 5.43145 0.595371 5.29032C0.592993 5.14918 0.617784 5.00899 0.668264 4.87811C0.718743 4.74722 0.793878 4.62833 0.889185 4.52851C0.984493 4.4287 1.09802 4.35001 1.223 4.29714C1.34797 4.24428 1.48183 4.21831 1.6166 4.2208C1.75136 4.2233 1.88427 4.25419 2.00738 4.31164C2.1305 4.36909 2.24131 4.45192 2.33319 4.55519L5.13546 7.48855L9.78314 1.28687C9.79151 1.27608 9.80045 1.26579 9.80991 1.25604H9.80857Z"
        fill="white" />
</svg>