<svg width="70" height="70" viewBox="0 0 70 70" fill="none" xmlns="http://www.w3.org/2000/svg">
<path d="M8.75 20.4167V14.5833C8.75 13.0362 9.36458 11.5525 10.4585 10.4585C11.5525 9.36458 13.0362 8.75 14.5833 8.75H20.4167M49.5833 8.75H55.4167C56.9638 8.75 58.4475 9.36458 59.5415 10.4585C60.6354 11.5525 61.25 13.0362 61.25 14.5833V20.4167M61.25 49.5833V55.4167C61.25 56.9638 60.6354 58.4475 59.5415 59.5415C58.4475 60.6354 56.9638 61.25 55.4167 61.25H49.5833M20.4167 61.25H14.5833C13.0362 61.25 11.5525 60.6354 10.4585 59.5415C9.36458 58.4475 8.75 56.9638 8.75 55.4167V49.5833" stroke="black" stroke-width="2" stroke-linecap="round" stroke-linejoin="round"/>
<path d="M35 43.75C39.8325 43.75 43.75 39.8325 43.75 35C43.75 30.1675 39.8325 26.25 35 26.25C30.1675 26.25 26.25 30.1675 26.25 35C26.25 39.8325 30.1675 43.75 35 43.75Z" stroke="black" stroke-width="2" stroke-linecap="round" stroke-linejoin="round"/>
<path d="M46.6667 46.6667L41.125 41.125" stroke="black" stroke-width="2" stroke-linecap="round" stroke-linejoin="round"/>
</svg>
